<?xml version="1.0" encoding="UTF-8" standalone="no"?>
<!-- Created with Inkscape (http://www.inkscape.org/) -->

<svg
   width="32"
   height="32"
   viewBox="0 0 8.4666665 8.4666666"
   version="1.1"
   id="svg1"
   inkscape:version="1.3.2 (091e20e, 2023-11-25, custom)"
   sodipodi:docname="sasogine_surface_classic.svg"
   xml:space="preserve"
   xmlns:inkscape="http://www.inkscape.org/namespaces/inkscape"
   xmlns:sodipodi="http://sodipodi.sourceforge.net/DTD/sodipodi-0.dtd"
   xmlns="http://www.w3.org/2000/svg"
   xmlns:svg="http://www.w3.org/2000/svg"><sodipodi:namedview
     id="namedview1"
     pagecolor="#505050"
     bordercolor="#ffffff"
     borderopacity="1"
     inkscape:showpageshadow="0"
     inkscape:pageopacity="0"
     inkscape:pagecheckerboard="1"
     inkscape:deskcolor="#505050"
     inkscape:document-units="px"
     inkscape:zoom="10.522857"
     inkscape:cx="219.47461"
     inkscape:cy="178.46864"
     inkscape:window-width="2880"
     inkscape:window-height="1514"
     inkscape:window-x="-11"
     inkscape:window-y="-11"
     inkscape:window-maximized="1"
     inkscape:current-layer="svg1"
     showguides="false"><inkscape:page
       x="0"
       y="0"
       width="8.4666662"
       height="8.4666662"
       id="page1"
       margin="0"
       bleed="0"
       inkscape:label="field-border-default" /><inkscape:page
       x="8.9762926"
       y="0.025143677"
       width="8.4666662"
       height="8.4666662"
       id="page2"
       margin="0"
       bleed="0"
       inkscape:label="field-border-hovered" /><inkscape:page
       x="18.065731"
       y="0.050287355"
       width="8.4666662"
       height="8.4666662"
       id="page3"
       margin="0"
       bleed="0"
       inkscape:label="field-border-disabled" /><inkscape:page
       x="27.166718"
       y="0.12445486"
       width="8.4666662"
       height="8.4666662"
       id="page4"
       margin="0"
       bleed="0"
       inkscape:label="field-border-focused" /><inkscape:page
       x="0.088896327"
       y="9.0496464"
       width="8.4666662"
       height="8.4666662"
       id="page5"
       margin="0"
       bleed="0"
       inkscape:label="button-border-default" /><inkscape:page
       x="8.9963083"
       y="9.031867"
       width="8.4666662"
       height="8.4666662"
       id="page6"
       margin="0"
       bleed="0"
       inkscape:label="button-border-hovered" /><inkscape:page
       x="18.13485"
       y="8.9607496"
       width="8.4666662"
       height="8.4666662"
       id="page7"
       margin="0"
       bleed="0"
       inkscape:label="button-border-disabled" /><inkscape:page
       x="27.113379"
       y="9.1029835"
       width="8.4666662"
       height="8.4666662"
       id="page8"
       margin="0"
       bleed="0"
       inkscape:label="button-border-focused" /><inkscape:page
       x="36.180805"
       y="9.0496464"
       width="8.4666662"
       height="8.4666662"
       id="page9"
       inkscape:label="button-border-pressed"
       margin="0"
       bleed="0" /><inkscape:page
       x="60.4454"
       y="-0.50287354"
       width="4.2333331"
       height="4.2333331"
       id="page13"
       margin="0"
       bleed="0"
       inkscape:label="menu_arrow_down_icon" /><inkscape:page
       x="60.470547"
       y="4.4755745"
       width="4.2333331"
       height="4.2333331"
       id="page14"
       margin="0"
       bleed="0"
       inkscape:label="menu_arrow_up_icon" /><inkscape:page
       x="65.725571"
       y="-0.47772989"
       width="4.2333331"
       height="4.2333331"
       id="page15"
       margin="0"
       bleed="0"
       inkscape:label="menu_arrow_left_icon" /><inkscape:page
       x="65.901581"
       y="4.5510058"
       width="4.2333331"
       height="4.2333331"
       id="page16"
       margin="0"
       bleed="0"
       inkscape:label="menu_arrow_right_icon" /><inkscape:page
       x="60.470547"
       y="10.258621"
       width="4.2333331"
       height="4.2333331"
       id="page18"
       margin="0"
       bleed="0"
       inkscape:label="button_arrow_up_icon" /><inkscape:page
       x="65.725571"
       y="10.158046"
       width="4.2333331"
       height="4.2333331"
       id="page19"
       margin="0"
       bleed="0"
       inkscape:label="button_arrow_up_icon" /><inkscape:page
       x="60.646549"
       y="15.614224"
       width="4.2333331"
       height="4.2333331"
       id="page20"
       margin="0"
       bleed="0"
       inkscape:label="button_arrow_up_icon" /><inkscape:page
       x="65.92672"
       y="15.739942"
       width="4.2333331"
       height="4.2333331"
       id="page21"
       margin="0"
       bleed="0"
       inkscape:label="button_arrow_up_icon" /><inkscape:page
       x="0.20114942"
       y="18.304598"
       width="8.4666662"
       height="8.4666662"
       id="page23"
       margin="0"
       bleed="0"
       inkscape:label="content-border-default" /><inkscape:page
       x="0.15086207"
       y="27.632902"
       width="8.4666662"
       height="8.4666662"
       id="page26"
       margin="0"
       bleed="0"
       inkscape:label="window-border-default" /><inkscape:page
       x="44.428883"
       y="27.758621"
       width="8.4666662"
       height="8.4666662"
       id="page27"
       margin="0"
       bleed="0"
       inkscape:label="window_boder-inactivate" /><inkscape:page
       x="9.5043106"
       y="37.313217"
       width="8.4666662"
       height="8.4666662"
       id="page29"
       margin="0"
       bleed="0"
       inkscape:label="item_border_hovered" /><inkscape:page
       x="36.206898"
       y="37.288074"
       width="8.4666662"
       height="8.4666662"
       id="page31"
       margin="0"
       bleed="0"
       inkscape:label="item_boder_selected" /><inkscape:page
       x="27.180317"
       y="18.204023"
       width="8.4666662"
       height="8.4666662"
       id="page32"
       margin="0"
       bleed="0"
       inkscape:label="box_border_focused" /><inkscape:page
       x="71.650436"
       y="-0.56893647"
       width="4.2333331"
       height="4.2333331"
       id="page34"
       margin="0"
       bleed="0"
       inkscape:label="window_close_icon" /><inkscape:page
       x="71.472649"
       y="4.5159335"
       width="4.2333331"
       height="4.2333331"
       id="page35"
       margin="0"
       bleed="0"
       inkscape:label="inspector_value_clear_icon" /><inkscape:page
       x="77.001999"
       y="-0.60449505"
       width="4.2333331"
       height="4.2333331"
       id="page36"
       inkscape:label="menu_radio_mark_icon"
       margin="0"
       bleed="0" /><inkscape:page
       x="77.073112"
       y="4.4981542"
       width="4.2333331"
       height="4.2333331"
       id="page37"
       inkscape:label="menu_check_mark_icon"
       margin="0"
       bleed="0" /><inkscape:page
       x="81.997971"
       y="-0.6578328"
       width="4.2333331"
       height="4.2333331"
       id="page38"
       inkscape:label="drive_icon"
       margin="0"
       bleed="0" /><inkscape:page
       x="82.193542"
       y="4.5692711"
       width="4.2333331"
       height="4.2333331"
       id="page39"
       margin="0"
       bleed="0"
       inkscape:label="file_icon" /><inkscape:page
       x="82.353554"
       y="9.583024"
       width="4.2333331"
       height="4.2333331"
       id="page40"
       margin="0"
       bleed="0"
       inkscape:label="folder_icon" /><inkscape:page
       x="87.633995"
       y="-0.76450843"
       width="4.2333331"
       height="4.2333331"
       id="page41"
       margin="0"
       bleed="0"
       inkscape:label="disc_icon" /><inkscape:page
       x="87.81179"
       y="4.5514917"
       width="4.2333331"
       height="4.2333331"
       id="page42"
       margin="0"
       bleed="0"
       inkscape:label="network_icon" /><inkscape:page
       x="88.202934"
       y="9.7252579"
       width="4.2333331"
       height="4.2333331"
       id="page43"
       inkscape:label="image_file_icon"
       margin="0"
       bleed="0" /><inkscape:page
       x="82.28244"
       y="15.414623"
       width="4.2333331"
       height="4.2333331"
       id="page44"
       inkscape:label="sound_file_icon"
       margin="0"
       bleed="0" /><inkscape:page
       x="88.38073"
       y="15.307947"
       width="4.2333331"
       height="4.2333331"
       id="page45"
       inkscape:label="video_file_icon"
       margin="0"
       bleed="0" /><inkscape:page
       x="82.442451"
       y="20.552832"
       width="4.2333331"
       height="4.2333331"
       id="page46"
       inkscape:label="archive_ile_icon"
       margin="0"
       bleed="0" /><inkscape:page
       x="88.540741"
       y="20.535051"
       width="4.2333331"
       height="4.2333331"
       id="page47"
       inkscape:label="text_file_icon"
       margin="0"
       bleed="0" /><inkscape:page
       x="93.892296"
       y="9.7785959"
       width="4.2333331"
       height="4.2333331"
       id="page48"
       inkscape:label="script_file_icon"
       margin="0"
       bleed="0" /><inkscape:page
       x="93.785622"
       y="15.414623"
       width="4.2333331"
       height="4.2333331"
       id="page50"
       inkscape:label="music_file_icon"
       margin="0"
       bleed="0" /><inkscape:page
       x="93.484192"
       y="4.7270117"
       width="4.2333331"
       height="4.2333331"
       id="page51"
       margin="0"
       bleed="0"
       inkscape:label="favourite_folder_icon" /><inkscape:page
       x="77.417381"
       y="9.680316"
       width="4.2333331"
       height="4.2333331"
       id="page52"
       margin="0"
       bleed="0"
       inkscape:label="icon_refresh" /><inkscape:page
       x="93.987068"
       y="20.466953"
       width="4.2333331"
       height="4.2333331"
       id="page53"
       margin="0"
       bleed="0"
       inkscape:label="map_file_icon" /><inkscape:page
       x="56.774426"
       y="27.884338"
       width="6.3499999"
       height="6.3499999"
       id="page54"
       margin="0"
       bleed="0"
       inkscape:label="checkbox_checked" /><inkscape:page
       x="65.499283"
       y="27.984915"
       width="6.3499999"
       height="6.3499999"
       id="page55"
       margin="0"
       bleed="0"
       inkscape:label="checkbox_unchecked" /><inkscape:page
       x="56.522987"
       y="35.729164"
       width="6.3499999"
       height="6.3499999"
       id="page56"
       margin="0"
       bleed="0"
       inkscape:label="radiobutton_checked" /><inkscape:page
       x="65.096985"
       y="35.678879"
       width="6.3499999"
       height="6.3499999"
       id="page57"
       margin="0"
       bleed="0"
       inkscape:label="radiobutton_unchecked" /><inkscape:page
       x="56.522987"
       y="43.548851"
       width="12.7"
       height="6.3499999"
       id="page59"
       margin="0"
       bleed="0"
       inkscape:label="switch_default" /><inkscape:page
       x="56.673851"
       y="50.664513"
       width="6.3499999"
       height="6.3499999"
       id="page60"
       margin="0"
       bleed="0"
       inkscape:label="switch_knob" /></sodipodi:namedview><defs
     id="defs1" /><g
     inkscape:groupmode="layer"
     id="layer29"
     inkscape:label="Radiobutton"><g
       inkscape:groupmode="layer"
       id="g59"
       inkscape:label="Radiobutton-Unchecked" /><g
       inkscape:groupmode="layer"
       id="g58"
       inkscape:label="Radiobutton-Checked" /></g><g
     inkscape:groupmode="layer"
     id="layer28"
     inkscape:label="Checkbox"><g
       inkscape:groupmode="layer"
       id="g57"
       inkscape:label="Checkbox-Unchecked" /><g
       inkscape:groupmode="layer"
       id="layer30"
       inkscape:label="Checkbox-Checked" /></g><g
     inkscape:groupmode="layer"
     id="layer31"
     inkscape:label="Switch" /><g
     inkscape:label="Field-Border"
     inkscape:groupmode="layer"
     id="layer1"><g
       inkscape:groupmode="layer"
       id="layer2"
       inkscape:label="Field-Border-Hovered"><rect
         style="fill:#333333;stroke:#53676c;stroke-width:0.264583;stroke-dasharray:none"
         id="rect1"
         width="8.2020836"
         height="8.2020836"
         x="0.13229166"
         y="0.13229166"
         rx="1.0583333"
         ry="1.0583333" /></g><g
       inkscape:groupmode="layer"
       id="g4"
       inkscape:label="Field-Border-Focused"
       transform="translate(27.166718,0.1244547)"><rect
         style="fill:#333333;stroke:#93a7ac;stroke-width:0.264583;stroke-dasharray:none"
         id="rect4"
         width="8.2020836"
         height="8.2020836"
         x="0.13229166"
         y="0.13229166"
         rx="1.0583333"
         ry="1.0583333" /></g><g
       inkscape:groupmode="layer"
       id="g3"
       inkscape:label="Field-Border-Disabled"
       transform="translate(18.065731,0.05028719)"><rect
         style="fill:#333333;stroke:#4d4d4d;stroke-width:0.264583;stroke-dasharray:none"
         id="rect3"
         width="8.2020836"
         height="8.2020836"
         x="0.13229166"
         y="0.13229166"
         rx="1.0583333"
         ry="1.0583333" /></g><g
       inkscape:groupmode="layer"
       id="g2"
       inkscape:label="Field-Border-Default"><rect
         style="fill:#4d4d4d;stroke:#53676c;stroke-width:0.264583;stroke-dasharray:none"
         id="rect2"
         width="8.2020836"
         height="8.2020836"
         x="9.1085835"
         y="0.15743518"
         rx="1.0583333"
         ry="1.0583333" /></g></g><g
     inkscape:groupmode="layer"
     id="layer8"
     inkscape:label="Window-Border"><g
       inkscape:groupmode="layer"
       id="layer9"
       inkscape:label="Window-Border-Default"><rect
         style="fill:#4d4d4d;fill-opacity:1;stroke:#37abc8;stroke-width:0.264583;stroke-dasharray:none;stroke-opacity:1"
         id="rect27"
         width="8.2020826"
         height="8.2020826"
         x="0.28315327"
         y="27.765194" /></g><g
       inkscape:groupmode="layer"
       id="g28"
       inkscape:label="Window-Border-Inactivate"><rect
         style="fill:#4d4d4d;fill-opacity:1;stroke:#164450;stroke-width:0.264583;stroke-dasharray:none;stroke-opacity:1"
         id="rect28"
         width="8.2020826"
         height="8.2020826"
         x="44.561172"
         y="27.890913" /></g></g><g
     inkscape:groupmode="layer"
     id="layer7"
     inkscape:label="Box-Border"><g
       inkscape:groupmode="layer"
       id="layer10"
       inkscape:label="Box-Border-Default"><rect
         style="fill:#4d4d4d;stroke:#4d4d4d;stroke-width:0.264583;stroke-dasharray:none;stroke-opacity:1"
         id="rect1-8"
         width="8.2020836"
         height="8.2020836"
         x="0.3334406"
         y="18.43689"
         rx="1.0583333"
         ry="1.0583333" /></g><g
       inkscape:groupmode="layer"
       id="g32"
       inkscape:label="Box-Border-Focused"><rect
         style="fill:#4d4d4d;stroke:#93a7ac;stroke-width:0.264583;stroke-dasharray:none;stroke-opacity:1"
         id="rect32"
         width="8.2020836"
         height="8.2020836"
         x="27.312609"
         y="18.336315"
         rx="1.0583333"
         ry="1.0583333" /></g></g><g
     inkscape:groupmode="layer"
     id="layer3"
     inkscape:label="Button-Border"><g
       inkscape:groupmode="layer"
       id="g9"
       inkscape:label="Button-Border-Default"
       transform="translate(-8.8873959,9.0245026)"><rect
         style="fill:#1a1a1a;stroke:#1a1a1a;stroke-width:0.264583;stroke-dasharray:none;stroke-opacity:1"
         id="rect9"
         width="8.2020836"
         height="8.2020836"
         x="9.1085835"
         y="0.15743518"
         rx="1.0583333"
         ry="1.0583333" /></g><g
       inkscape:groupmode="layer"
       id="g10"
       inkscape:label="Button-Border-Hovered"
       transform="translate(0.02001612,9.0067233)"><rect
         style="fill:#53676c;stroke:#53676c;stroke-width:0.264583;stroke-dasharray:none;fill-opacity:1"
         id="rect10"
         width="8.2020836"
         height="8.2020836"
         x="9.1085835"
         y="0.15743518"
         rx="1.0583333"
         ry="1.0583333" /></g><g
       inkscape:groupmode="layer"
       id="g11"
       inkscape:label="Button-Border-Disabled"
       transform="translate(9.1585574,8.9356059)"><rect
         style="fill:#333333;stroke:#333333;stroke-width:0.264583;stroke-dasharray:none;stroke-opacity:1"
         id="rect11"
         width="8.2020836"
         height="8.2020836"
         x="9.1085835"
         y="0.15743518"
         rx="1.0583333"
         ry="1.0583333" /></g><g
       inkscape:groupmode="layer"
       id="g12"
       inkscape:label="Button-Border-Focused"
       transform="translate(18.137086,9.0778397)"><rect
         style="fill:#1a1a1a;stroke:#93a7ac;stroke-width:0.264583;stroke-dasharray:none;fill-opacity:1;stroke-opacity:1"
         id="rect12"
         width="8.2020836"
         height="8.2020836"
         x="9.1085835"
         y="0.15743518"
         rx="1.0583333"
         ry="1.0583333" /></g><g
       inkscape:groupmode="layer"
       id="g13"
       inkscape:label="Button-Border-Pressed"
       transform="translate(27.204513,9.0245026)"><rect
         style="fill:#93a7ac;stroke:#93a7ac;stroke-width:0.264583;stroke-dasharray:none;fill-opacity:1;stroke-opacity:1"
         id="rect13"
         width="8.2020836"
         height="8.2020836"
         x="9.1085835"
         y="0.15743518"
         rx="1.0583333"
         ry="1.0583333" /></g></g><g
     inkscape:groupmode="layer"
     id="layer11"
     inkscape:label="Item-Border"><g
       inkscape:groupmode="layer"
       id="g33"
       inkscape:label="Item-Border-Hovered"
       transform="translate(-0.00862765,9.5613188)"><rect
         style="fill:#53676c;fill-opacity:1;stroke:#53676c;stroke-width:0.264583;stroke-dasharray:none;stroke-opacity:1"
         id="rect27-3"
         width="8.2020826"
         height="8.2020826"
         x="9.6452293"
         y="27.88419" /></g><g
       inkscape:groupmode="layer"
       id="g34"
       inkscape:label="Item-Border-Selected"
       transform="translate(-0.00862765,9.5613188)"><rect
         style="fill:#93a7ac;fill-opacity:1;stroke:#93a7ac;stroke-width:0.264583;stroke-dasharray:none;stroke-opacity:1"
         id="rect27-3-2"
         width="8.2020826"
         height="8.2020826"
         x="36.347816"
         y="27.859047" /></g></g><g
     inkscape:groupmode="layer"
     id="layer4"
     inkscape:label="Icons"><g
       inkscape:groupmode="layer"
       id="layer5"
       inkscape:label="Menu-Arrow-Left"><path
         d="M 63.6204,1.0846269 62.562066,2.1429591 61.503734,1.0846269 Z"
         id="path1"
         style="fill:#cccccc;stroke-width:0.264582" /></g><g
       inkscape:groupmode="layer"
       id="g16"
       inkscape:label="Menu-Arrow-Right"><path
         d="M 68.371404,2.69727 67.313071,1.6389367 68.371404,0.58060332 Z"
         id="path16"
         style="fill:#cccccc;stroke-width:0.264582" /></g><g
       inkscape:groupmode="layer"
       id="g17"
       inkscape:label="Menu-Arrow-Up"><path
         d="m 67.489081,5.609339 1.058333,1.0583333 -1.058333,1.0583334 z"
         id="path17"
         style="fill:#cccccc;stroke-width:0.264582" /></g><g
       inkscape:groupmode="layer"
       id="g18"
       inkscape:label="Menu-Arrow-Down"><path
         d="m 61.528881,7.1214078 1.058333,-1.0583335 1.058333,1.0583335 z"
         id="path18"
         style="fill:#cccccc;stroke-width:0.264583" /></g><g
       inkscape:groupmode="layer"
       id="layer6"
       inkscape:label="Button-Arrow-Down"><path
         d="m 61.985888,10.787788 h 1.202651 v 1.603534 h 0.97014 l -1.571465,1.571466 -1.571465,-1.571466 h 0.970139 z"
         id="path1-5"
         style="fill:#cccccc;stroke-width:0.264583" /></g><g
       inkscape:groupmode="layer"
       id="g21"
       inkscape:label="Button-Arrow-Up"><path
         d="m 63.364542,19.318391 h -1.202651 v -1.603534 h -0.97014 l 1.571465,-1.571466 1.571465,1.571466 h -0.970139 z"
         id="path1-5-8-8-5"
         style="fill:#cccccc;stroke-width:0.264583" /></g><g
       inkscape:groupmode="layer"
       id="g22"
       inkscape:label="Button-Arrow-Left"><path
         d="m 69.429738,11.673386 v 1.202651 h -1.603534 v 0.97014 l -1.571466,-1.571465 1.571466,-1.571465 v 0.970139 z"
         id="path1-5-8"
         style="fill:#cccccc;stroke-width:0.264583" /></g><g
       inkscape:groupmode="layer"
       id="g23"
       inkscape:label="Button-Arrow-Right"><path
         d="m 66.455887,18.457934 v -1.202651 h 1.603534 v -0.97014 l 1.571466,1.571465 -1.571466,1.571465 v -0.970139 z"
         id="path1-5-8-8"
         style="fill:#cccccc;stroke-width:0.264583" /></g><g
       inkscape:groupmode="layer"
       id="layer12"
       inkscape:label="Window-Close"><path
         d="M 75.09002,0.70602431 74.608809,0.22481335 73.767103,1.0665191 72.925396,0.22481335 72.444186,0.70602431 73.285891,1.54773 72.444186,2.3894358 72.925396,2.8706468 73.767103,2.028941 74.608809,2.8706468 75.09002,2.3894358 74.248314,1.54773 Z"
         id="path1-6"
         style="fill:#cccccc;fill-opacity:1;stroke-width:0.264583" /></g><g
       inkscape:groupmode="layer"
       id="layer13"
       inkscape:label="Inspector-Clear-Value"><path
         d="M 73.589316,7.6909334 A 1.0583334,1.0583334 0 0 1 72.530982,6.6326 1.0583334,1.0583334 0 0 1 73.589316,5.5742665 1.0583334,1.0583334 0 0 1 74.647649,6.6326 1.0583334,1.0583334 0 0 1 73.589316,7.6909334 m 0,-2.3812503 A 1.3229168,1.3229168 0 0 0 72.266399,6.6326 1.3229168,1.3229168 0 0 0 73.589316,7.9555169 1.3229168,1.3229168 0 0 0 74.912232,6.6326 1.3229168,1.3229168 0 0 0 73.589316,5.3096831 Z"
         id="path1-9"
         style="stroke-width:0.264583;fill:#cccccc;fill-opacity:1" /></g><g
       inkscape:groupmode="layer"
       id="layer14"
       inkscape:label="Menu-Check-Mark"><path
         d="M 78.644391,7.9187184 77.60228,6.8766072 78.077188,6.4016997 78.644391,6.9705815 80.302373,5.3109229 80.77728,5.7858302 Z"
         id="path1-8"
         style="fill:#cccccc;fill-opacity:1;stroke-width:0.264583" /></g><g
       inkscape:groupmode="layer"
       id="layer15"
       inkscape:label="Menu-Radio-Mark"><path
         d="m 79.118665,0.45383839 a 1.0583331,1.0583331 0 0 0 -1.058333,1.05833321 1.0583331,1.0583331 0 0 0 1.058333,1.058333 1.0583331,1.0583331 0 0 0 1.058334,-1.058333 1.0583331,1.0583331 0 0 0 -1.058334,-1.05833321 z"
         id="path1-0"
         style="fill:#cccccc;fill-opacity:1;stroke-width:0.264583" /></g><g
       inkscape:groupmode="layer"
       id="layer16"
       inkscape:label="Filesystem-Folder"><path
         d="m 84.152721,10.429691 h -0.9525 c -0.176213,0 -0.3175,0.141288 -0.3175,0.3175 v 1.905001 a 0.3175,0.3175 0 0 0 0.3175,0.317499 h 2.54 a 0.3175,0.3175 0 0 0 0.3175,-0.317499 v -1.587501 c 0,-0.176213 -0.142874,-0.3175 -0.3175,-0.3175 H 84.47022 Z"
         id="path1-61"
         style="fill:#cccccc;fill-opacity:1;stroke-width:0.264583" /></g><g
       inkscape:groupmode="layer"
       id="layer17"
       inkscape:label="Filesystem-File"><path
         d="m 84.62771,5.0984374 h -1.270001 a 0.31750001,0.31750001 0 0 0 -0.317499,0.3175 v 2.5400004 a 0.31750001,0.31750001 0 0 0 0.317499,0.3175 h 1.905 a 0.31750001,0.31750001 0 0 0 0.317501,-0.3175 V 6.0509374 l -0.9525,-0.9525 m 0.634999,2.8575004 h -1.905 V 5.4159374 h 1.111251 v 0.7937501 h 0.793749 z"
         id="path1-3"
         style="fill:#cccccc;fill-opacity:1;stroke-width:0.264583" /></g><g
       inkscape:groupmode="layer"
       id="layer18"
       inkscape:label="Filesystem-Disc"><path
         d="m 89.750662,1.7490331 c -0.220266,0 -0.396875,-0.1785938 -0.396875,-0.396875 0,-0.2202656 0.176609,-0.39687495 0.396875,-0.39687495 0.220266,0 0.396875,0.17660935 0.396875,0.39687495 a 0.39687502,0.39687502 0 0 1 -0.396875,0.396875 m 0,-1.98437506 a 1.5875001,1.5875001 0 0 0 -1.5875,1.58750006 1.5875001,1.5875001 0 0 0 1.5875,1.5875001 1.5875001,1.5875001 0 0 0 1.5875,-1.5875001 1.5875001,1.5875001 0 0 0 -1.5875,-1.58750006 z"
         id="path1-05"
         style="fill:#cccccc;fill-opacity:1;stroke-width:0.264583" /></g><g
       inkscape:groupmode="layer"
       id="layer19"
       inkscape:label="Drive"><path
         d="M 85.702138,2.0938335 V 0.8238334 A 0.31749995,0.31749995 0 0 0 85.384639,0.5063339 h -2.54 a 0.31749995,0.31749995 0 0 0 -0.317501,0.3174995 v 1.2700001 a 0.31749995,0.31749995 0 0 0 0.317501,0.3175001 h 2.54 a 0.31749995,0.31749995 0 0 0 0.317499,-0.3175001 m -0.317499,0 H 85.067138 V 0.8238334 h 0.317501 V 2.0938335 M 84.749638,0.8238334 V 2.0938335 H 84.432139 V 0.8238334 h 0.317499 m -1.5875,0 V 1.1413336 H 82.844639 V 0.8238334 Z"
         id="path1-1"
         style="fill:#cccccc;fill-opacity:1;stroke-width:0.264583" /></g><g
       inkscape:groupmode="layer"
       id="layer20"
       inkscape:label="Network"><path
         d="m 88.817208,5.5569083 c -0.174625,0 -0.3175,0.142875 -0.3175,0.3175 v 0.6349999 c 0,0.1762125 0.142875,0.3175 0.3175,0.3175 h 0.9525 v 0.3175 h -0.15875 c -0.08731,0 -0.15875,0.071438 -0.15875,0.15875 h -1.11125 v 0.3175 h 1.11125 c 0,0.087312 0.07144,0.15875 0.15875,0.15875 h 0.635 c 0.08731,0 0.15875,-0.071438 0.15875,-0.15875 h 1.11125 v -0.3175 h -1.11125 c 0,-0.087312 -0.07144,-0.15875 -0.15875,-0.15875 h -0.15875 v -0.3175 h 0.9525 c 0.176213,0 0.3175,-0.1412875 0.3175,-0.3175 V 5.8744083 c 0,-0.174625 -0.141287,-0.3175 -0.3175,-0.3175 h -2.2225 m 0.15875,0.47625 h 0.3175 v 0.3174999 h -0.3175 V 6.0331583 m 0.555625,0 h 0.3175 v 0.3174999 h -0.3175 V 6.0331583 m 0.555625,0 h 0.3175 v 0.3174999 h -0.3175 z"
         id="path1-96"
         style="fill:#cccccc;fill-opacity:1;stroke-width:0.264583" /></g><g
       inkscape:groupmode="layer"
       id="layer21"
       inkscape:label="Image-File"><path
         d="m 91.554323,13.076646 h -2.469444 v -2.469444 h 2.469444 m 0,-0.352777 h -2.469444 a 0.35277777,0.35277777 0 0 0 -0.352778,0.352777 v 2.469444 a 0.35277777,0.35277777 0 0 0 0.352778,0.352778 h 2.469444 a 0.35277777,0.35277777 0 0 0 0.352778,-0.352778 v -2.469444 a 0.35277777,0.35277777 0 0 0 -0.352778,-0.352777 m -0.889,1.638652 -0.485069,0.624416 -0.345723,-0.416277 -0.485069,0.622653 h 1.940278 z"
         id="path1-85"
         style="fill:#cccccc;fill-opacity:1;stroke-width:0.264583" /></g><g
       inkscape:groupmode="layer"
       id="g48"
       inkscape:label="Video-File"><path
         d="M 91.47854,17.881812 V 17.354337 A 0.15070706,0.15070706 0 0 0 91.327833,17.20363 h -0.150707 c 0.337584,-0.242638 0.415952,-0.712844 0.173313,-1.054949 -0.242638,-0.33457 -0.712844,-0.412938 -1.051935,-0.170299 -0.100974,0.07234 -0.182356,0.170299 -0.23661,0.280315 -0.354161,-0.218525 -0.818339,-0.110016 -1.036865,0.24716 -0.217018,0.354161 -0.108509,0.818339 0.24716,1.036864 0.03165,0.01809 0.0633,0.03768 0.09645,0.04973 v 1.268954 a 0.15070706,0.15070706 0 0 0 0.150707,0.150708 h 1.808485 a 0.15070706,0.15070706 0 0 0 0.150707,-0.150707 v -0.527475 l 0.602829,0.602828 V 17.278982 L 91.478538,17.88181 M 90.725003,16.299386 A 0.30141412,0.30141412 0 0 1 91.026417,16.6008 0.30141412,0.30141412 0 0 1 90.725003,16.902214 0.30141412,0.30141412 0 0 1 90.423589,16.6008 0.30141412,0.30141412 0 0 1 90.725003,16.299386 M 89.670054,16.6008 a 0.30141412,0.30141412 0 0 1 0.301413,0.301414 0.30141412,0.30141412 0 0 1 -0.301413,0.301414 0.30141412,0.30141412 0 0 1 -0.301415,-0.301414 0.30141412,0.30141412 0 0 1 0.301415,-0.301414 z"
         id="path1-93"
         style="fill:#cccccc;fill-opacity:1;stroke-width:0.264583" /></g><g
       inkscape:groupmode="layer"
       id="g49"
       inkscape:label="Archive-File"><path
         d="M 85.970231,24.256998 H 83.148009 V 22.31672 h 0.352777 v 1.5875 h 2.116667 v -1.5875 h 0.352778 v 1.940278 m -2.998612,-3.175 h 3.175 v 1.058333 h -3.175 v -1.058333 m 1.146528,1.411111 h 0.881945 c 0.04939,0 0.08819,0.03881 0.08819,0.08819 v 0.264584 h -1.058333 v -0.264584 c 0,-0.04939 0.03881,-0.08819 0.08819,-0.08819 m -0.79375,-1.058333 v 0.352777 h 2.469445 v -0.352777 z"
         id="path1-937"
         style="fill:#cccccc;fill-opacity:1;stroke-width:0.264583" /></g><g
       inkscape:groupmode="layer"
       id="g50"
       inkscape:label="Text-File"><path
         d="m 89.422686,21.064218 c -0.195791,0 -0.352778,0.156986 -0.352778,0.352778 v 2.469444 c 0,0.195792 0.156987,0.352778 0.352778,0.352778 h 2.469445 c 0.195791,0 0.352777,-0.156986 0.352777,-0.352778 v -2.469444 c 0,-0.195792 -0.156986,-0.352778 -0.352777,-0.352778 h -2.469445 m 0,0.352778 h 2.469445 v 2.469444 h -2.469445 v -2.469444 m 0.352778,0.352777 v 0.352778 h 1.763889 v -0.352778 h -1.763889 m 0,0.705556 v 0.352778 h 1.763889 v -0.352778 h -1.763889 m 0,0.705556 v 0.352778 h 1.234722 v -0.352778 z"
         id="path1-15"
         style="fill:#cccccc;fill-opacity:1;stroke-width:0.264583" /></g><g
       inkscape:groupmode="layer"
       id="layer22"
       inkscape:label="Script-File"><path
         d="m 96.485213,13.165263 a 0.15874998,0.15874998 0 0 0 0.15875,-0.158751 v -2.381249 h -1.27 a 0.15874998,0.15874998 0 0 0 -0.15875,0.15875 v 1.746249 h -0.3175 v -1.746249 a 0.47624995,0.47624995 0 0 1 0.47625,-0.47625 h 1.74625 a 0.47624995,0.47624995 0 0 1 0.47625,0.47625 v 0.15875 h -0.3175 v -0.15875 a 0.15874998,0.15874998 0 0 0 -0.15875,-0.15875 0.15874998,0.15874998 0 0 0 -0.15875,0.15875 v 0.635 1.587499 a 0.47624995,0.47624995 0 0 1 -0.47625,0.47625 h -1.5875 a 0.47624995,0.47624995 0 0 1 -0.47625,-0.47625 v -0.158749 h 1.74625 a 0.31749997,0.31749997 0 0 0 0.3175,0.3175 m -0.9525,-2.2225 h 0.79375 v 0.3175 h -0.79375 v -0.3175 m 0,0.634999 h 0.79375 v 0.317501 h -0.79375 v -0.317501 m 0,0.635001 h 0.79375 v 0.317499 h -0.79375 z"
         id="path1-11"
         style="fill:#cccccc;fill-opacity:1;stroke-width:0.264583" /></g><g
       inkscape:groupmode="layer"
       id="layer23"
       inkscape:label="Sound-File"><path
         d="m 84.751885,15.984359 v 0.363361 c 0.509764,0.151695 0.881944,0.624417 0.881944,1.18357 0,0.559152 -0.37218,1.030111 -0.881944,1.181805 v 0.365125 c 0.705555,-0.160514 1.234722,-0.791986 1.234722,-1.54693 0,-0.754945 -0.529167,-1.386417 -1.234722,-1.546931 m 0.440972,1.546931 c 0,-0.312208 -0.176389,-0.58032 -0.440972,-0.710848 v 1.416403 c 0.264583,-0.125236 0.440972,-0.395111 0.440972,-0.705555 m -2.38125,-0.529167 v 1.058333 h 0.705556 l 0.881944,0.881945 v -2.822223 l -0.881944,0.881945 z"
         id="path1-4"
         style="fill:#cccccc;fill-opacity:1;stroke-width:0.264583" /></g><g
       inkscape:groupmode="layer"
       id="layer24"
       inkscape:label="Music-File"><path
         d="m 97.489789,16.02734 v 2.088816 a 0.58486844,0.58486844 0 0 1 -0.584869,0.584868 0.58486844,0.58486844 0 0 1 -0.584868,-0.584868 0.58486844,0.58486844 0 0 1 0.584868,-0.584869 c 0.09024,0 0.175461,0.02005 0.250658,0.05682 v -0.980908 l -1.671053,0.355935 v 1.487237 a 0.58486844,0.58486844 0 0 1 -0.584868,0.584868 0.58486844,0.58486844 0 0 1 -0.584868,-0.584868 0.58486844,0.58486844 0 0 1 0.584868,-0.584869 c 0.09024,0 0.175461,0.02005 0.250658,0.05682 v -1.393658 z"
         id="path1-116"
         style="fill:#cccccc;fill-opacity:1;stroke-width:0.264583" /></g><g
       inkscape:groupmode="layer"
       id="layer25"
       inkscape:label="Favourite-Folder"><path
         d="m 95.407184,6.8516159 0.481012,-0.041274 0.188912,-0.4429122 0.188913,0.4429122 0.481012,0.041274 -0.365125,0.315912 0.109538,0.4699001 -0.414338,-0.2428871 -0.414337,0.2428871 0.109537,-0.4699001 -0.365124,-0.315912 m 1.781175,-0.6429377 v 1.5874996 c 0,0.1762128 -0.141288,0.3175002 -0.317501,0.3175002 h -2.539999 c -0.174625,0 -0.3175,-0.1412874 -0.3175,-0.3175002 V 5.8911786 c 0,-0.1762128 0.142875,-0.3175002 0.3175,-0.3175002 h 0.9525 l 0.317499,0.3175002 h 1.27 c 0.176213,0 0.317501,0.142875 0.317501,0.3174996 m -0.317501,0 h -2.539999 v 1.5874996 h 2.539999 z"
         id="path1-611"
         style="fill:#cccccc;fill-opacity:1;stroke-width:0.264583" /></g><g
       inkscape:groupmode="layer"
       id="layer26"
       inkscape:label="Refresh"><path
         d="m 80.65522,10.67581 c -0.287735,-0.287734 -0.682626,-0.466328 -1.121172,-0.466328 a 1.5875001,1.5875001 0 0 0 -1.5875,1.5875 1.5875001,1.5875001 0 0 0 1.5875,1.5875 c 0.740172,0 1.357312,-0.506015 1.533922,-1.190625 h -0.41275 c -0.162719,0.462359 -0.60325,0.79375 -1.121172,0.79375 a 1.1906251,1.1906251 0 0 1 -1.190625,-1.190625 1.1906251,1.1906251 0 0 1 1.190625,-1.190625 c 0.329406,0 0.623094,0.136922 0.837406,0.353219 l -0.638968,0.638968 h 1.389062 v -1.389062 z"
         id="path1-06"
         style="stroke-width:0.264583;fill:#cccccc;fill-opacity:1" /></g><g
       inkscape:groupmode="layer"
       id="layer27"
       inkscape:label="Map-File"><path
         d="m 94.516235,22.407231 h 1.41111 V 20.99612 h -1.41111 m 0,3.175 h 1.41111 v -1.411111 h -1.41111 m 1.763888,1.411111 h 1.411112 v -1.411111 h -1.411112 m 0,-1.763889 v 1.411111 h 1.411112 V 20.99612"
         id="path1-31"
         style="fill:#cccccc;fill-opacity:1;stroke-width:0.264583" /></g></g><path
     d="m 68.801151,41.139655 a 2.1166666,2.1166666 0 0 1 -2.116666,-2.116667 2.1166666,2.1166666 0 0 1 2.116666,-2.116666 2.1166666,2.1166666 0 0 1 2.116667,2.116666 2.1166666,2.1166666 0 0 1 -2.116667,2.116667 m 0,-4.7625 a 2.6458333,2.6458333 0 0 0 -2.645833,2.645833 2.6458333,2.6458333 0 0 0 2.645833,2.645834 2.6458333,2.6458333 0 0 0 2.645834,-2.645834 2.6458333,2.6458333 0 0 0 -2.645834,-2.645833 z"
     id="path1-62"
     style="stroke-width:0.264583" /><path
     d="m 59.527658,40.491664 a 2.1166666,2.1166666 0 0 1 -2.116667,-2.116667 2.1166666,2.1166666 0 0 1 2.116667,-2.116667 2.1166666,2.1166666 0 0 1 2.116667,2.116667 2.1166666,2.1166666 0 0 1 -2.116667,2.116667 m 0,-4.7625 a 2.6458333,2.6458333 0 0 0 -2.645833,2.645833 2.6458333,2.6458333 0 0 0 2.645833,2.645833 2.6458333,2.6458333 0 0 0 2.645833,-2.645833 2.6458333,2.6458333 0 0 0 -2.645833,-2.645833 m 0,1.322916 a 1.3229166,1.3229166 0 0 0 -1.322917,1.322917 1.3229166,1.3229166 0 0 0 1.322917,1.322917 1.3229166,1.3229166 0 0 0 1.322917,-1.322917 1.3229166,1.3229166 0 0 0 -1.322917,-1.322917 z"
     id="path1-01"
     style="stroke-width:0.264583" /><path
     d="m 61.458874,28.975744 h -3.704167 a 0.52916666,0.52916666 0 0 0 -0.529167,0.529167 v 3.704166 a 0.52916666,0.52916666 0 0 0 0.529167,0.529167 h 3.704167 a 0.52916666,0.52916666 0 0 0 0.529166,-0.529167 v -3.704166 a 0.52916666,0.52916666 0 0 0 -0.529166,-0.529167 m 0,0.529167 v 3.704166 h -3.704167 v -3.704166 h 3.704167 m -2.38125,3.175 -1.058334,-1.058334 0.373063,-0.375708 0.685271,0.685271 1.743604,-1.743604 0.373062,0.375708"
     id="path1-91"
     style="stroke-width:0.264583" /><path
     d="m 70.632615,28.847198 h -3.704167 c -0.293688,0 -0.529167,0.235479 -0.529167,0.529167 v 3.704166 a 0.52916666,0.52916666 0 0 0 0.529167,0.529167 h 3.704167 a 0.52916666,0.52916666 0 0 0 0.529166,-0.529167 v -3.704166 c 0,-0.293688 -0.238125,-0.529167 -0.529166,-0.529167 m 0,0.529167 v 3.704166 h -3.704167 v -3.704166 z"
     id="path1-32"
     style="stroke-width:0.264583" /><path
     id="path59"
     style="fill:#cccccc;fill-opacity:1;stroke:#cccccc;stroke-width:0.264583;stroke-dasharray:none;stroke-opacity:1"
     d="m 59.764136,43.681142 a 3.1088544,3.0427085 0 0 0 -3.108854,3.042708 3.1088544,3.0427085 0 0 0 3.108854,3.042709 h 6.217709 A 3.1088544,3.0427085 0 0 0 69.0907,46.72385 3.1088544,3.0427085 0 0 0 65.981845,43.681142 Z" /></svg>
